<?xml version="1.0" encoding="UTF-8"?>
<!DOCTYPE svg PUBLIC "-//W3C//DTD SVG 1.1//EN" "http://www.w3.org/Graphics/SVG/1.1/DTD/svg11.dtd">
<svg xmlns="http://www.w3.org/2000/svg" version="1.1" width="752px" height="752px" style="shape-rendering:geometricPrecision; text-rendering:geometricPrecision; image-rendering:optimizeQuality; fill-rule:evenodd; clip-rule:evenodd" xmlns:xlink="http://www.w3.org/1999/xlink">
<g><path style="opacity:0.996" fill="#f9f9f9" d="M 174.5,488.5 C 176.638,489.404 178.971,490.071 181.5,490.5C 182.416,490.457 183.083,490.124 183.5,489.5C 199.374,492.074 215.041,495.408 230.5,499.5C 232.137,500.38 233.97,501.046 236,501.5C 236.765,501.43 237.265,501.097 237.5,500.5C 255.545,503.041 273.212,506.708 290.5,511.5C 293.409,513.287 296.409,513.621 299.5,512.5C 353.817,522.659 407.817,533.659 461.5,545.5C 464.089,547.157 466.756,547.491 469.5,546.5C 473.314,547.368 476.981,548.368 480.5,549.5C 480.062,549.435 479.728,549.601 479.5,550C 480.766,550.309 481.933,550.809 483,551.5C 483.139,556.596 483.639,560.929 484.5,564.5C 489.093,564.167 492.593,565.834 495,569.5C 495.288,580.943 494.288,592.276 492,603.5C 468.367,620.736 443.533,636.069 417.5,649.5C 412.212,651.288 407.878,653.621 404.5,656.5C 398.259,660.255 391.592,663.255 384.5,665.5C 360.228,658.076 336.228,650.076 312.5,641.5C 310.78,640.136 308.78,639.136 306.5,638.5C 305.893,638.624 305.56,638.957 305.5,639.5C 304.508,639.672 303.842,639.338 303.5,638.5C 302.347,637.234 300.347,636.234 297.5,635.5C 296.893,635.624 296.56,635.957 296.5,636.5C 279.34,631.075 262.34,625.408 245.5,619.5C 244.347,618.234 242.347,617.234 239.5,616.5C 238.893,616.624 238.56,616.957 238.5,617.5C 213.56,609.021 188.393,601.021 163,593.5C 154.14,590.049 145.307,586.716 136.5,583.5C 131.455,581.425 126.288,579.425 121,577.5C 120.601,577.728 120.435,578.062 120.5,578.5C 105.872,573.623 91.205,568.957 76.5,564.5C 72.2519,562.759 67.4186,560.759 62,558.5C 61.6012,558.728 61.4346,559.062 61.5,559.5C 57.7871,559.23 54.9537,557.564 53,554.5C 50.7907,547.988 50.124,541.321 51,534.5C 51.3826,533.944 51.8826,533.611 52.5,533.5C 52.4346,533.938 52.6012,534.272 53,534.5C 53.8333,533.667 54.6667,532.833 55.5,532C 55.2716,531.601 54.9382,531.435 54.5,531.5C 57.2887,526.877 60.9553,523.044 65.5,520C 87.9586,510.888 110.625,502.388 133.5,494.5C 133.435,494.938 133.601,495.272 134,495.5C 136.761,494.204 139.595,493.037 142.5,492C 141.906,491.536 141.239,491.369 140.5,491.5C 146.088,488.798 151.921,486.465 158,484.5C 163.673,485.663 169.173,486.996 174.5,488.5 Z M 156.5,492.5 C 156.735,491.903 157.235,491.57 158,491.5C 162.428,492.704 166.928,493.537 171.5,494C 170.271,494.781 168.938,495.281 167.5,495.5C 163.771,494.652 160.104,493.652 156.5,492.5 Z M 143.5,496.5 C 146.702,496.77 149.702,497.604 152.5,499C 150.101,499.731 147.935,500.898 146,502.5C 142.901,501.545 139.734,500.711 136.5,500C 139.069,499.102 141.402,497.935 143.5,496.5 Z M 179.5,497.5 C 182.772,496.149 186.106,496.316 189.5,498C 186.203,499.256 182.87,499.089 179.5,497.5 Z M 199.5,499.5 C 202.522,499.804 205.522,500.304 208.5,501C 204.864,502.899 201.197,502.899 197.5,501C 198.416,500.722 199.082,500.222 199.5,499.5 Z M 162.5,501.5 C 172.692,502.248 172.526,503.915 162,506.5C 159.968,506.142 158.134,505.308 156.5,504C 158.852,503.76 160.852,502.927 162.5,501.5 Z M 123.5,504.5 C 130.326,505.299 136.993,506.799 143.5,509C 141.833,509.833 140.167,510.667 138.5,511.5C 132.356,509.967 126.356,508.133 120.5,506C 121.737,505.768 122.737,505.268 123.5,504.5 Z M 179.5,504.5 C 182.127,505.105 184.793,505.605 187.5,506C 184.774,508.03 181.774,509.53 178.5,510.5C 176.5,510 174.5,509.5 172.5,509C 175.239,507.974 177.572,506.474 179.5,504.5 Z M 216.5,505.5 C 220.51,504.164 224.51,504.33 228.5,506C 224.358,507.729 220.358,507.563 216.5,505.5 Z M 237.5,507.5 C 240.271,507.421 242.937,507.921 245.5,509C 242.298,510.483 238.964,510.817 235.5,510C 236.381,509.292 237.047,508.458 237.5,507.5 Z M 195.5,508.5 C 198.91,508.457 202.243,508.957 205.5,510C 202.121,511.107 198.954,512.607 196,514.5C 193.865,513.873 191.698,513.373 189.5,513C 190.056,512.617 190.389,512.117 190.5,511.5C 192.674,511.25 194.341,510.25 195.5,508.5 Z M 108.5,510.5 C 115.719,512.638 123.053,514.472 130.5,516C 127.662,518.758 124.329,519.758 120.5,519C 114.442,517.536 108.442,515.87 102.5,514C 104.432,512.541 106.432,511.375 108.5,510.5 Z M 153.5,510.5 C 156.421,511.065 159.088,512.232 161.5,514C 157.505,515.997 153.172,515.997 148.5,514C 150.233,512.811 151.9,511.644 153.5,510.5 Z M 258.5,510.5 C 261.675,511.429 265.009,512.262 268.5,513C 266.464,513.454 264.63,514.287 263,515.5C 258.993,514.673 255.16,513.673 251.5,512.5C 253.921,512.122 256.254,511.455 258.5,510.5 Z M 214.5,512.5 C 218.468,513.394 222.468,514.227 226.5,515C 223.6,516.742 220.6,518.242 217.5,519.5C 214.01,518.632 210.677,517.465 207.5,516C 209.925,514.787 212.259,513.621 214.5,512.5 Z M 276.5,515.5 C 280.912,515.902 285.246,516.735 289.5,518C 287.61,519.112 285.61,519.946 283.5,520.5C 279.819,519.73 276.152,518.897 272.5,518C 274.066,517.392 275.4,516.558 276.5,515.5 Z M 179.5,519.5 C 177.5,520.167 175.5,520.833 173.5,521.5C 171.046,520.379 168.379,519.546 165.5,519C 170.666,516.12 175.999,515.786 181.5,518C 180.584,518.278 179.918,518.778 179.5,519.5 Z M 235.5,516.5 C 239.163,517.266 242.829,518.1 246.5,519C 243.399,520.966 240.232,522.8 237,524.5C 233.502,523.667 230.002,522.834 226.5,522C 229.865,520.656 232.865,518.823 235.5,516.5 Z M 91.5,517.5 C 101.292,520.949 111.292,523.782 121.5,526C 123.405,526.826 123.739,527.993 122.5,529.5C 112.389,526.64 102.389,523.473 92.5,520C 91.7476,519.329 91.4142,518.496 91.5,517.5 Z M 138.5,518.5 C 143.522,519.505 148.522,520.672 153.5,522C 146.956,526.057 140.289,526.057 133.5,522C 135.346,520.97 137.013,519.804 138.5,518.5 Z M 189.5,519.5 C 191.435,520.15 193.435,520.483 195.5,520.5C 196.609,521.29 197.942,521.79 199.5,522C 194.96,525.811 189.96,526.478 184.5,524C 186.618,522.951 188.284,521.451 189.5,519.5 Z M 303.5,519.5 C 304.209,520.404 305.209,520.737 306.5,520.5C 309.01,520.927 311.343,521.593 313.5,522.5C 311.297,522.604 309.297,523.27 307.5,524.5C 303.78,524.436 300.114,523.936 296.5,523C 295.944,522.617 295.611,522.117 295.5,521.5C 298.006,520.25 300.673,519.584 303.5,519.5 Z M 255.5,520.5 C 259.163,521.266 262.829,522.1 266.5,523C 260.868,528.929 254.534,529.929 247.5,526C 250.407,524.391 253.073,522.558 255.5,520.5 Z M 75.5,522.5 C 78.0009,522.511 78.1676,523.178 76,524.5C 75.5357,523.906 75.369,523.239 75.5,522.5 Z M 322.5,523.5 C 327.435,524.932 332.435,526.099 337.5,527C 335.167,528.167 332.833,529.333 330.5,530.5C 325.955,528.89 321.288,527.724 316.5,527C 319.025,526.576 321.025,525.41 322.5,523.5 Z M 207.5,524.5 C 211.319,524.605 214.986,525.438 218.5,527C 213.475,531.275 208.142,531.608 202.5,528C 204.346,526.97 206.013,525.804 207.5,524.5 Z M 87.5,525.5 C 90.2602,526.192 92.9269,527.192 95.5,528.5C 92.167,529.015 88.8337,528.515 85.5,527C 86.4158,526.722 87.0825,526.222 87.5,525.5 Z M 160.5,525.5 C 163.673,525.401 166.673,526.068 169.5,527.5C 167.971,529.188 166.137,530.521 164,531.5C 161.004,530.71 158.171,529.544 155.5,528C 157.315,527.243 158.981,526.41 160.5,525.5 Z M 275.5,525.5 C 279.997,526.23 284.33,527.396 288.5,529C 285.221,531.223 281.721,533.057 278,534.5C 274.147,533.294 270.314,532.127 266.5,531C 269.596,529.128 272.596,527.295 275.5,525.5 Z M 65.5,527.5 C 67.677,527.586 69.677,528.253 71.5,529.5C 72.3144,532.419 73.3144,535.252 74.5,538C 69.6445,537.786 64.9778,536.619 60.5,534.5C 62.4216,532.313 64.0883,529.98 65.5,527.5 Z M 130.5,528.5 C 132.435,529.15 134.435,529.483 136.5,529.5C 138.905,530.768 141.572,531.435 144.5,531.5C 144.5,532.5 144.5,533.5 144.5,534.5C 139.761,533.815 135.094,532.815 130.5,531.5C 129.662,531.158 129.328,530.492 129.5,529.5C 129.5,528.833 129.833,528.5 130.5,528.5 Z M 178.5,529.5 C 182.291,530.031 185.957,531.031 189.5,532.5C 187.772,534.226 185.772,535.559 183.5,536.5C 180.016,535.633 176.683,534.466 173.5,533C 175.584,532.303 177.251,531.136 178.5,529.5 Z M 227.5,529.5 C 231.884,530.01 236.218,530.843 240.5,532C 234.763,537.34 228.429,538.007 221.5,534C 223.389,532.236 225.389,530.736 227.5,529.5 Z M 357.5,534.5 C 353.886,535.359 350.219,535.359 346.5,534.5C 344.958,533.837 343.291,533.17 341.5,532.5C 343.605,530.532 346.105,529.532 349,529.5C 353.551,530.064 358.051,530.897 362.5,532C 360.509,532.374 358.842,533.207 357.5,534.5 Z M 305.5,531.5 C 307.764,532.219 310.097,532.552 312.5,532.5C 308.974,535.833 304.807,538.166 300,539.5C 296.184,538.588 292.351,537.754 288.5,537C 291.167,535 293.833,533 296.5,531C 299.531,530.505 302.531,530.671 305.5,531.5 Z M 105.5,531.5 C 109.844,532.558 114.178,533.725 118.5,535C 116.635,536.301 114.635,536.635 112.5,536C 109.5,535 106.5,534 103.5,533C 104.416,532.722 105.082,532.222 105.5,531.5 Z M 85.5,533.5 C 86.9972,534.306 88.6639,534.972 90.5,535.5C 91.8333,538.167 91.8333,540.833 90.5,543.5C 87.7097,542.803 85.0431,541.803 82.5,540.5C 83.3482,538.591 83.6816,536.591 83.5,534.5C 83.8417,533.662 84.5084,533.328 85.5,533.5 Z M 150.5,533.5 C 154.832,534.104 158.499,535.938 161.5,539C 161.167,539.5 160.833,540 160.5,540.5C 157.798,538.653 154.798,537.487 151.5,537C 150.663,535.989 150.33,534.822 150.5,533.5 Z M 371.5,533.5 C 377.194,534.472 382.86,535.639 388.5,537C 385.124,538.07 381.79,539.236 378.5,540.5C 374.429,539.753 370.429,538.753 366.5,537.5C 368.015,535.918 369.681,534.584 371.5,533.5 Z M 197.5,534.5 C 202.037,534.884 206.371,536.051 210.5,538C 204.624,542.057 198.624,542.057 192.5,538C 194.346,536.97 196.013,535.804 197.5,534.5 Z M 248.5,534.5 C 253.27,534.692 257.937,535.525 262.5,537C 259.905,539.213 257.072,541.047 254,542.5C 249.811,541.411 245.644,540.244 241.5,539C 244.239,537.974 246.572,536.474 248.5,534.5 Z M 321.5,535.5 C 326.709,535.735 331.709,536.902 336.5,539C 332.065,541.441 327.398,543.275 322.5,544.5C 318.514,543.603 314.514,542.769 310.5,542C 314.23,539.807 317.897,537.64 321.5,535.5 Z M 130.5,537.5 C 133.614,538.956 136.948,540.122 140.5,541C 139.271,541.781 137.938,542.281 136.5,542.5C 133.685,541.755 130.851,541.088 128,540.5C 126.624,540.316 125.791,539.649 125.5,538.5C 127.117,537.962 128.784,537.629 130.5,537.5 Z M 101.5,539.5 C 105.11,540.703 108.777,541.703 112.5,542.5C 112.813,545.247 112.48,547.914 111.5,550.5C 107.677,549.059 103.843,547.726 100,546.5C 99.7607,544.041 100.261,541.707 101.5,539.5 Z M 168.5,539.5 C 173.232,540.35 177.899,541.516 182.5,543C 181.91,544.299 180.91,545.132 179.5,545.5C 175.5,544.333 171.5,543.167 167.5,542C 168.252,541.329 168.586,540.496 168.5,539.5 Z M 416.5,543.5 C 413.318,543.584 410.985,544.917 409.5,547.5C 407.236,546.781 404.903,546.448 402.5,546.5C 398.84,545.527 395.173,544.361 391.5,543C 394.505,541.83 397.505,540.664 400.5,539.5C 406.073,540.418 411.406,541.751 416.5,543.5 Z M 218.5,540.5 C 222.291,541.031 225.957,542.031 229.5,543.5C 224.162,547.96 218.495,548.127 212.5,544C 214.879,543.284 216.879,542.117 218.5,540.5 Z M 270.5,540.5 C 275.872,541.009 281.205,541.842 286.5,543C 283.107,545.363 279.44,547.196 275.5,548.5C 271.654,546.829 267.654,545.663 263.5,545C 265.898,543.476 268.231,541.976 270.5,540.5 Z M 361.5,545.5 C 356.833,547.5 352.167,549.5 347.5,551.5C 343.375,550.033 339.042,548.867 334.5,548C 338.75,545.626 342.916,543.126 347,540.5C 352.095,541.823 357.261,542.99 362.5,544C 361.944,544.383 361.611,544.883 361.5,545.5 Z M 69.5,544.5 C 72.4606,545.323 75.4606,545.99 78.5,546.5C 86.8363,549.002 95.1696,551.835 103.5,555C 150.156,568.608 196.822,582.108 243.5,595.5C 245.993,596.774 248.659,597.44 251.5,597.5C 294.336,610.465 337.336,623.298 380.5,636C 379.54,639.73 379.207,643.563 379.5,647.5C 378.632,650.327 378.632,653.327 379.5,656.5C 370.5,653.833 361.5,651.167 352.5,648.5C 350.299,647.434 347.965,646.767 345.5,646.5C 329.965,640.211 313.965,634.877 297.5,630.5C 294.301,629.101 290.968,628.101 287.5,627.5C 271.932,621.2 255.932,615.866 239.5,611.5C 237.299,610.434 234.965,609.767 232.5,609.5C 217.19,603.396 201.523,598.063 185.5,593.5C 182.888,592.629 180.221,591.963 177.5,591.5C 170.047,589.179 162.714,586.345 155.5,583C 125.336,573.777 95.3356,564.277 65.5,554.5C 64.2921,553.766 62.9587,553.433 61.5,553.5C 58.3552,550.315 57.0219,546.315 57.5,541.5C 61.5837,542.188 65.5837,543.188 69.5,544.5 Z M 188.5,544.5 C 192.793,545.657 197.127,546.657 201.5,547.5C 201.657,548.873 201.49,550.207 201,551.5C 196.981,549.954 192.815,548.954 188.5,548.5C 188.5,547.167 188.5,545.833 188.5,544.5 Z M 417.5,548.5 C 419.703,548.396 421.703,547.73 423.5,546.5C 424.915,545.711 426.415,545.044 428,544.5C 435.106,545.54 441.939,547.373 448.5,550C 446.5,551 444.5,552 442.5,553C 433.916,552.448 425.583,550.948 417.5,548.5 Z M 239.5,545.5 C 243.859,546.507 248.192,547.673 252.5,549C 249.751,550.123 247.251,551.623 245,553.5C 240.928,552.106 236.762,550.94 232.5,550C 234.898,548.476 237.231,546.976 239.5,545.5 Z M 294.5,545.5 C 298.913,545.853 303.246,546.686 307.5,548C 303.916,550.041 300.416,552.208 297,554.5C 293.218,553.261 289.385,552.095 285.5,551C 288.898,549.643 291.898,547.81 294.5,545.5 Z M 371.5,545.5 C 377.225,546.68 382.892,548.18 388.5,550C 383.545,551.476 379.212,553.976 375.5,557.5C 370.027,556.3 364.693,554.8 359.5,553C 363.939,551.032 367.939,548.532 371.5,545.5 Z M 124.5,546.5 C 128.582,547.249 132.582,548.249 136.5,549.5C 137.205,552.244 137.205,554.911 136.5,557.5C 131.617,555.696 126.617,554.363 121.5,553.5C 121.34,551.801 121.506,550.134 122,548.5C 122.417,547.244 123.25,546.577 124.5,546.5 Z M 142.5,546.5 C 145.684,546.332 146.184,547.666 144,550.5C 142.812,549.437 142.312,548.103 142.5,546.5 Z M 237.5,568.5 C 240.067,569.475 242.733,570.142 245.5,570.5C 258.198,574.011 270.864,577.844 283.5,582C 282.391,582.638 281.225,583.138 280,583.5C 239.522,572.256 199.022,561.089 158.5,550C 157.377,548.956 156.044,548.29 154.5,548C 155.609,547.362 156.775,546.862 158,546.5C 184.716,553.354 211.216,560.688 237.5,568.5 Z M 208.5,549.5 C 212.518,550.341 216.184,552.008 219.5,554.5C 219.167,555.5 218.5,556.167 217.5,556.5C 214.686,554.895 211.686,553.895 208.5,553.5C 208.5,552.167 208.5,550.833 208.5,549.5 Z M 315.5,550.5 C 322.722,551.224 329.722,552.724 336.5,555C 331.521,558.106 326.188,559.773 320.5,560C 315.732,558.975 311.066,557.642 306.5,556C 309.898,554.643 312.898,552.81 315.5,550.5 Z M 261.5,551.5 C 266.501,552.081 271.167,553.581 275.5,556C 273,556.885 270.667,558.052 268.5,559.5C 264.115,558.321 259.781,556.987 255.5,555.5C 257.565,554.143 259.565,552.81 261.5,551.5 Z M 458.5,551.5 C 463.211,552.01 467.878,552.844 472.5,554C 470.731,555.314 468.731,556.147 466.5,556.5C 462.514,555.603 458.514,554.769 454.5,554C 456.066,553.392 457.4,552.558 458.5,551.5 Z M 416.5,555.5 C 418.764,556.219 421.097,556.552 423.5,556.5C 417.778,559.304 412.111,562.304 406.5,565.5C 400.585,563.688 394.585,562.188 388.5,561C 387.328,560.581 386.328,559.915 385.5,559C 390.257,556.289 395.257,554.122 400.5,552.5C 405.846,553.503 411.18,554.503 416.5,555.5 Z M 242.5,579.5 C 245.37,580.634 248.37,581.3 251.5,581.5C 259.506,583.842 267.506,586.509 275.5,589.5C 276.484,592.428 276.817,595.428 276.5,598.5C 234.201,585.846 191.868,573.179 149.5,560.5C 148.794,558.234 148.961,555.901 150,553.5C 152.996,554.29 155.829,555.456 158.5,557C 186.75,563.894 214.75,571.394 242.5,579.5 Z M 225.5,555.5 C 230.888,556.347 236.221,557.513 241.5,559C 243.497,560.153 243.83,561.653 242.5,563.5C 237.259,561.698 231.926,560.198 226.5,559C 225.663,557.989 225.33,556.822 225.5,555.5 Z M 344.5,557.5 C 349.893,558.346 355.227,559.512 360.5,561C 355.948,563.443 351.282,565.61 346.5,567.5C 341.833,566.333 337.167,565.167 332.5,564C 337.01,562.582 341.01,560.415 344.5,557.5 Z M 300.5,562.5 C 298.421,562.971 296.421,563.637 294.5,564.5C 288.836,565.892 283.503,565.059 278.5,562C 285.857,557.828 293.19,557.995 300.5,562.5 Z M 477.5,558.5 C 478.622,560.288 478.789,562.288 478,564.5C 475.146,566.598 472.479,568.931 470,571.5C 469.179,568.446 469.345,565.446 470.5,562.5C 473.059,561.392 475.392,560.059 477.5,558.5 Z M 449.5,559.5 C 454.265,560.454 458.932,561.787 463.5,563.5C 463.333,563.833 463.167,564.167 463,564.5C 459.28,563.188 455.447,562.188 451.5,561.5C 450.287,561.253 449.62,560.586 449.5,559.5 Z M 249.5,561.5 C 255.208,562.677 260.874,564.01 266.5,565.5C 266.762,566.978 266.429,568.311 265.5,569.5C 260.238,567.851 254.904,566.518 249.5,565.5C 249.5,564.167 249.5,562.833 249.5,561.5 Z M 426.5,562.5 C 436.328,563.943 445.995,566.109 455.5,569C 453.152,570.84 450.485,572.007 447.5,572.5C 439.674,569.503 431.674,567.003 423.5,565C 424.571,564.148 425.571,563.315 426.5,562.5 Z M 369.5,563.5 C 378.488,564.414 387.154,566.58 395.5,570C 391.339,571.737 387.005,572.737 382.5,573C 380.515,574.997 378.181,575.664 375.5,575C 369.123,573.489 362.79,571.823 356.5,570C 360.925,567.787 365.259,565.621 369.5,563.5 Z M 309.5,564.5 C 315.565,565.683 321.565,567.183 327.5,569C 323.037,571.249 318.37,572.249 313.5,572C 309.58,570.687 305.58,569.687 301.5,569C 304.391,567.726 307.058,566.226 309.5,564.5 Z M 273.5,568.5 C 278.148,569.662 282.815,570.829 287.5,572C 288.747,573.494 288.747,574.994 287.5,576.5C 283.535,575.234 279.535,574.067 275.5,573C 273.893,571.951 273.227,570.451 273.5,568.5 Z M 415.5,569.5 C 419.4,570.808 423.4,571.808 427.5,572.5C 432.911,574.303 438.244,576.303 443.5,578.5C 433.213,576.712 423.213,574.046 413.5,570.5C 413.957,569.702 414.624,569.369 415.5,569.5 Z M 419.5,612.5 C 416.515,613.326 413.849,614.659 411.5,616.5C 405.064,620.052 398.397,623.052 391.5,625.5C 410.469,614.68 429.469,603.847 448.5,593C 459.514,586.161 470.181,578.827 480.5,571C 481.833,570.333 483.167,570.333 484.5,571C 478.556,574.611 472.889,578.611 467.5,583C 451.603,593.109 435.603,602.943 419.5,612.5 Z M 335.5,572.5 C 343.629,573.699 351.629,575.532 359.5,578C 354.51,579.502 349.51,580.502 344.5,581C 338.788,579.489 333.121,577.822 327.5,576C 330.599,575.613 333.266,574.446 335.5,572.5 Z M 294.5,573.5 C 297.067,574.475 299.733,575.142 302.5,575.5C 306.291,576.953 310.291,578.119 314.5,579C 313.48,580.556 312.147,581.722 310.5,582.5C 305.232,580.85 299.899,579.516 294.5,578.5C 294.5,576.833 294.5,575.167 294.5,573.5 Z M 458.5,574.5 C 459.598,575.601 459.765,576.934 459,578.5C 456.667,580.167 454.333,581.833 452,583.5C 451.727,581.899 451.227,580.399 450.5,579C 453.391,577.726 456.058,576.226 458.5,574.5 Z M 397.5,576.5 C 399.288,575.378 401.288,575.211 403.5,576C 413.167,578.333 422.833,580.667 432.5,583C 430.863,583.601 429.197,584.101 427.5,584.5C 417.465,581.825 407.465,579.159 397.5,576.5 Z M 419.5,642.5 C 415.849,643.659 412.515,645.326 409.5,647.5C 401.617,651.024 393.784,654.691 386,658.5C 385.025,650.707 385.525,643.04 387.5,635.5C 391.389,633.726 395.055,631.726 398.5,629.5C 405.315,626.927 411.649,623.594 417.5,619.5C 442.672,607.491 466.172,592.824 488,575.5C 488.73,583.996 487.896,592.329 485.5,600.5C 473.833,608.333 462.167,616.167 450.5,624C 439.805,629.676 429.472,635.843 419.5,642.5 Z M 319.5,580.5 C 324.86,581.898 330.194,583.398 335.5,585C 330.597,587.879 325.597,587.879 320.5,585C 319.62,583.644 319.286,582.144 319.5,580.5 Z M 388.5,582.5 C 397.288,583.53 405.955,585.197 414.5,587.5C 416.993,588.774 419.659,589.44 422.5,589.5C 423.625,590.652 423.625,591.652 422.5,592.5C 420.485,591.076 418.152,590.41 415.5,590.5C 406.454,587.989 397.454,585.322 388.5,582.5 Z M 363.5,584.5 C 364.946,583.387 366.613,583.22 368.5,584C 382.155,588.162 395.822,592.162 409.5,596C 408.391,596.638 407.225,597.138 406,597.5C 392.13,592.145 377.963,587.812 363.5,584.5 Z M 297.5,586.5 C 298.5,586.5 299.5,586.5 300.5,586.5C 303.37,587.634 306.37,588.3 309.5,588.5C 310.609,589.29 311.942,589.79 313.5,590C 310.732,592.407 307.732,592.907 304.5,591.5C 302.401,590.388 300.067,589.721 297.5,589.5C 297.158,588.662 296.492,588.328 295.5,588.5C 295.062,588.565 294.728,588.399 294.5,588C 295.527,587.487 296.527,586.987 297.5,586.5 Z M 362.5,596.5 C 362.737,595.209 362.404,594.209 361.5,593.5C 360.365,591.787 358.698,591.12 356.5,591.5C 355.469,590.751 354.302,590.085 353,589.5C 352.312,588.668 352.479,588.002 353.5,587.5C 368.659,591.872 383.659,596.706 398.5,602C 394.446,601.991 390.446,601.324 386.5,600C 380.886,597.635 375.052,595.802 369,594.5C 366.774,595.033 364.607,595.7 362.5,596.5 Z M 436.5,587.5 C 438.225,587.843 438.725,588.843 438,590.5C 435.966,592.032 433.799,593.365 431.5,594.5C 430.386,593.277 430.219,591.944 431,590.5C 433.058,589.771 434.891,588.771 436.5,587.5 Z M 294.5,594.5 C 298.341,596.003 302.341,597.336 306.5,598.5C 306.342,601.545 307.009,604.379 308.5,607C 299.991,605.78 291.658,603.613 283.5,600.5C 284.648,597.711 285.981,595.044 287.5,592.5C 289.729,593.577 292.063,594.244 294.5,594.5 Z M 350.5,596.5 C 347.669,597.079 345.336,598.412 343.5,600.5C 337.931,599.689 332.598,598.189 327.5,596C 330.505,594.83 333.505,593.664 336.5,592.5C 341.374,593.548 346.041,594.881 350.5,596.5 Z M 414.5,600.5 C 416.225,600.843 416.725,601.843 416,603.5C 414.333,604.833 412.667,606.167 411,607.5C 410.202,605.741 410.369,604.074 411.5,602.5C 412.739,602.058 413.739,601.391 414.5,600.5 Z M 343.5,617.5 C 343.158,618.338 342.492,618.672 341.5,618.5C 333.024,615.447 324.357,612.614 315.5,610C 317.196,607.413 318.196,604.579 318.5,601.5C 325.849,603.179 333.182,604.846 340.5,606.5C 341.055,610.397 342.055,614.063 343.5,617.5 Z M 366.5,601.5 C 373.968,602.7 381.301,604.534 388.5,607C 385.199,607.997 381.866,608.33 378.5,608C 373.833,606.667 369.167,605.333 364.5,604C 365.381,603.292 366.047,602.458 366.5,601.5 Z M 352.5,602.5 C 351.833,604.5 351.167,606.5 350.5,608.5C 349.732,609.263 349.232,610.263 349,611.5C 348.722,610.584 348.222,609.918 347.5,609.5C 347.67,608.178 347.337,607.011 346.5,606C 348.364,604.569 350.364,603.403 352.5,602.5 Z M 401.5,603.5 C 403.225,603.843 403.725,604.843 403,606.5C 402.487,605.473 401.987,604.473 401.5,603.5 Z M 357.5,608.5 C 363.805,610.49 370.139,612.49 376.5,614.5C 377.972,617.149 378.972,619.982 379.5,623C 376.945,624.444 374.279,625.611 371.5,626.5C 365.782,624.987 360.116,623.321 354.5,621.5C 354.048,616.964 355.048,612.631 357.5,608.5 Z M 396.5,610.5 C 397.249,611.531 397.915,612.698 398.5,614C 394.255,616.039 390.088,618.206 386,620.5C 384.872,618.655 384.372,616.655 384.5,614.5C 388.942,614.268 392.942,612.935 396.5,610.5 Z"/></g>
<g><path style="opacity:0.839" fill="#dadada" d="M 174.5,488.5 C 177.545,488.508 180.545,488.841 183.5,489.5C 183.083,490.124 182.416,490.457 181.5,490.5C 178.971,490.071 176.638,489.404 174.5,488.5 Z"/></g>
<g><path style="opacity:0.957" fill="#dedede" d="M 140.5,491.5 C 141.239,491.369 141.906,491.536 142.5,492C 139.595,493.037 136.761,494.204 134,495.5C 133.601,495.272 133.435,494.938 133.5,494.5C 135.649,493.264 137.982,492.264 140.5,491.5 Z"/></g>
<g><path style="opacity:0.863" fill="#dadada" d="M 230.5,499.5 C 232.903,499.448 235.236,499.781 237.5,500.5C 237.265,501.097 236.765,501.43 236,501.5C 233.97,501.046 232.137,500.38 230.5,499.5 Z"/></g>
<g><path style="opacity:0.843" fill="#d9d9d9" d="M 195.5,508.5 C 194.341,510.25 192.674,511.25 190.5,511.5C 191.144,509.946 192.811,508.946 195.5,508.5 Z"/></g>
<g><path style="opacity:0.843" fill="#d7d7d7" d="M 258.5,510.5 C 256.254,511.455 253.921,512.122 251.5,512.5C 253.574,510.264 255.908,509.597 258.5,510.5 Z"/></g>
<g><path style="opacity:0.847" fill="#dadada" d="M 290.5,511.5 C 293.518,511.704 296.518,512.037 299.5,512.5C 296.409,513.621 293.409,513.287 290.5,511.5 Z"/></g>
<g><path style="opacity:0.839" fill="#d5d5d5" d="M 303.5,519.5 C 300.673,519.584 298.006,520.25 295.5,521.5C 295.062,521.565 294.728,521.399 294.5,521C 295.833,520.333 297.167,519.667 298.5,519C 301.021,518.2 302.688,518.367 303.5,519.5 Z"/></g>
<g><path style="opacity:0.839" fill="#d9d9d9" d="M 189.5,519.5 C 189.735,518.903 190.235,518.57 191,518.5C 193.377,518.836 194.877,519.503 195.5,520.5C 193.435,520.483 191.435,520.15 189.5,519.5 Z"/></g>
<g><path style="opacity:0.969" fill="#dbdbdb" d="M 179.5,519.5 C 177.915,521.982 175.915,522.648 173.5,521.5C 175.5,520.833 177.5,520.167 179.5,519.5 Z"/></g>
<g><path style="opacity:0.855" fill="#dadada" d="M 306.5,520.5 C 308.137,519.597 309.971,519.597 312,520.5C 312.833,520.833 313.667,521.167 314.5,521.5C 314.376,522.107 314.043,522.44 313.5,522.5C 311.343,521.593 309.01,520.927 306.5,520.5 Z"/></g>
<g><path style="opacity:0.9" fill="#dcdcdc" d="M 313.5,522.5 C 311.684,524.441 309.684,525.108 307.5,524.5C 309.297,523.27 311.297,522.604 313.5,522.5 Z"/></g>
<g><path style="opacity:0.847" fill="#dcdcdc" d="M 130.5,528.5 C 130.735,527.903 131.235,527.57 132,527.5C 134.377,527.836 135.877,528.503 136.5,529.5C 134.435,529.483 132.435,529.15 130.5,528.5 Z"/></g>
<g><path style="opacity:0.843" fill="#cfcfcf" d="M 129.5,529.5 C 129.328,530.492 129.662,531.158 130.5,531.5C 129.698,532.885 129.031,532.718 128.5,531C 128.57,530.235 128.903,529.735 129.5,529.5 Z"/></g>
<g><path style="opacity:0.855" fill="#d8d8d8" d="M 305.5,531.5 C 305.735,530.903 306.235,530.57 307,530.5C 309.03,530.954 310.863,531.62 312.5,532.5C 310.097,532.552 307.764,532.219 305.5,531.5 Z"/></g>
<g><path style="opacity:0.855" fill="#d0d0d0" d="M 54.5,531.5 C 54.9382,531.435 55.2716,531.601 55.5,532C 54.6667,532.833 53.8333,533.667 53,534.5C 52.6012,534.272 52.4346,533.938 52.5,533.5C 52.8333,532.5 53.5,531.833 54.5,531.5 Z"/></g>
<g><path style="opacity:0.847" fill="#cacaca" d="M 85.5,533.5 C 84.5084,533.328 83.8417,533.662 83.5,534.5C 82.1153,533.698 82.282,533.031 84,532.5C 84.7648,532.57 85.2648,532.903 85.5,533.5 Z"/></g>
<g><path style="opacity:0.843" fill="#dadada" d="M 346.5,534.5 C 350.219,535.359 353.886,535.359 357.5,534.5C 357.321,535.962 355.988,536.629 353.5,536.5C 350.92,536.276 348.586,535.609 346.5,534.5 Z"/></g>
<g><path style="opacity:0.843" fill="#d1d1d1" d="M 130.5,537.5 C 128.784,537.629 127.117,537.962 125.5,538.5C 125.354,537.301 126.354,536.634 128.5,536.5C 129.416,536.543 130.083,536.876 130.5,537.5 Z"/></g>
<g><path style="opacity:0.847" fill="#dcdcdc" d="M 69.5,544.5 C 69.7352,543.903 70.2352,543.57 71,543.5C 74.3898,544.041 76.8898,545.041 78.5,546.5C 75.4606,545.99 72.4606,545.323 69.5,544.5 Z"/></g>
<g><path style="opacity:0.843" fill="#dbdbdb" d="M 416.5,543.5 C 414.365,545.071 412.032,546.404 409.5,547.5C 410.985,544.917 413.318,543.584 416.5,543.5 Z"/></g>
<g><path style="opacity:0.847" fill="#d9d9d9" d="M 461.5,545.5 C 464.206,545.575 466.873,545.908 469.5,546.5C 466.756,547.491 464.089,547.157 461.5,545.5 Z"/></g>
<g><path style="opacity:0.871" fill="#dcdcdc" d="M 402.5,546.5 C 404.903,546.448 407.236,546.781 409.5,547.5C 409.265,548.097 408.765,548.43 408,548.5C 405.97,548.046 404.137,547.38 402.5,546.5 Z"/></g>
<g><path style="opacity:0.847" fill="#d3d3d3" d="M 423.5,546.5 C 421.703,547.73 419.703,548.396 417.5,548.5C 419.316,546.559 421.316,545.892 423.5,546.5 Z"/></g>
<g><path style="opacity:0.839" fill="#dddddd" d="M 124.5,546.5 C 124.735,545.903 125.235,545.57 126,545.5C 129.498,546.333 132.998,547.166 136.5,548C 137.738,548.69 137.738,549.19 136.5,549.5C 132.582,548.249 128.582,547.249 124.5,546.5 Z"/></g>
<g><path style="opacity:0.969" fill="#d8d8d8" d="M 361.5,545.5 C 358.227,548.144 354.56,550.311 350.5,552C 349.251,552.74 348.251,552.573 347.5,551.5C 352.167,549.5 356.833,547.5 361.5,545.5 Z"/></g>
<g><path style="opacity:0.851" fill="#cfcfcf" d="M 61.5,553.5 C 62.9587,553.433 64.2921,553.766 65.5,554.5C 64.0379,555.471 62.7046,555.138 61.5,553.5 Z"/></g>
<g><path style="opacity:0.838" fill="#e2e2e2" d="M 480.5,549.5 C 481.822,549.33 482.989,549.663 484,550.5C 484.499,555.155 484.666,559.821 484.5,564.5C 483.639,560.929 483.139,556.596 483,551.5C 481.933,550.809 480.766,550.309 479.5,550C 479.728,549.601 480.062,549.435 480.5,549.5 Z"/></g>
<g><path style="opacity:0.863" fill="#d9d9d9" d="M 416.5,555.5 C 416.735,554.903 417.235,554.57 418,554.5C 420.654,554.882 422.488,555.549 423.5,556.5C 421.097,556.552 418.764,556.219 416.5,555.5 Z"/></g>
<g><path style="opacity:0.89" fill="#e5e5e5" d="M 76.5,564.5 C 71.0787,563.804 66.0787,562.137 61.5,559.5C 61.4346,559.062 61.6012,558.728 62,558.5C 67.4186,560.759 72.2519,562.759 76.5,564.5 Z"/></g>
<g><path style="opacity:0.931" fill="#dadada" d="M 300.5,562.5 C 299.842,563.977 298.175,564.977 295.5,565.5C 294.893,565.376 294.56,565.043 294.5,564.5C 296.421,563.637 298.421,562.971 300.5,562.5 Z"/></g>
<g><path style="opacity:0.839" fill="#dadada" d="M 237.5,568.5 C 237.56,567.957 237.893,567.624 238.5,567.5C 241.704,568.105 244.038,569.105 245.5,570.5C 242.733,570.142 240.067,569.475 237.5,568.5 Z"/></g>
<g><path style="opacity:0.863" fill="#e2e2e2" d="M 415.5,569.5 C 415.56,568.957 415.893,568.624 416.5,568.5C 420.444,569.391 424.111,570.724 427.5,572.5C 423.4,571.808 419.4,570.808 415.5,569.5 Z"/></g>
<g><path style="opacity:0.843" fill="#dadada" d="M 294.5,573.5 C 294.56,572.957 294.893,572.624 295.5,572.5C 298.704,573.105 301.038,574.105 302.5,575.5C 299.733,575.142 297.067,574.475 294.5,573.5 Z"/></g>
<g><path style="opacity:0.839" fill="#dadada" d="M 242.5,579.5 C 242.56,578.957 242.893,578.624 243.5,578.5C 246.384,579.209 249.051,580.209 251.5,581.5C 248.37,581.3 245.37,580.634 242.5,579.5 Z"/></g>
<g><path style="opacity:0.847" fill="#e0e0e0" d="M 136.5,583.5 C 130.834,582.61 125.5,580.943 120.5,578.5C 120.435,578.062 120.601,577.728 121,577.5C 126.288,579.425 131.455,581.425 136.5,583.5 Z"/></g>
<g><path style="opacity:0.843" fill="#d8d8d8" d="M 297.5,586.5 C 296.527,586.987 295.527,587.487 294.5,588C 294.728,588.399 295.062,588.565 295.5,588.5C 294.698,589.885 294.031,589.718 293.5,588C 294.555,585.945 295.888,585.445 297.5,586.5 Z"/></g>
<g><path style="opacity:0.847" fill="#dadada" d="M 300.5,586.5 C 300.56,585.957 300.893,585.624 301.5,585.5C 304.384,586.209 307.051,587.209 309.5,588.5C 306.37,588.3 303.37,587.634 300.5,586.5 Z"/></g>
<g><path style="opacity:0.855" fill="#dedede" d="M 414.5,587.5 C 414.56,586.957 414.893,586.624 415.5,586.5C 418.016,587.33 420.35,588.33 422.5,589.5C 419.659,589.44 416.993,588.774 414.5,587.5 Z"/></g>
<g><path style="opacity:0.957" fill="#dedede" d="M 297.5,589.5 C 300.067,589.721 302.401,590.388 304.5,591.5C 304.44,592.043 304.107,592.376 303.5,592.5C 301.22,591.864 299.22,590.864 297.5,589.5 Z"/></g>
<g><path style="opacity:0.867" fill="#dcdcdc" d="M 356.5,591.5 C 358.698,591.12 360.365,591.787 361.5,593.5C 361.565,593.938 361.399,594.272 361,594.5C 358.913,593.312 357.413,592.312 356.5,591.5 Z"/></g>
<g><path style="opacity:0.843" fill="#dcdcdc" d="M 415.5,590.5 C 418.152,590.41 420.485,591.076 422.5,592.5C 422.565,592.938 422.399,593.272 422,593.5C 419.122,592.532 416.955,591.532 415.5,590.5 Z"/></g>
<g><path style="opacity:0.957" fill="#dcdcdc" d="M 177.5,591.5 C 180.221,591.963 182.888,592.629 185.5,593.5C 182.62,594.33 179.954,593.663 177.5,591.5 Z"/></g>
<g><path style="opacity:0.875" fill="#e0e0e0" d="M 306.5,598.5 C 302.341,597.336 298.341,596.003 294.5,594.5C 294.56,593.957 294.893,593.624 295.5,593.5C 299.556,594.616 303.223,596.283 306.5,598.5 Z"/></g>
<g><path style="opacity:0.847" fill="#dcdcdc" d="M 243.5,595.5 C 243.56,594.957 243.893,594.624 244.5,594.5C 247.016,595.33 249.35,596.33 251.5,597.5C 248.659,597.44 245.993,596.774 243.5,595.5 Z"/></g>
<g><path style="opacity:0.896" fill="#dddddd" d="M 350.5,596.5 C 349.154,598.385 346.821,599.718 343.5,600.5C 345.336,598.412 347.669,597.079 350.5,596.5 Z"/></g>
<g><path style="opacity:0.847" fill="#e0e0e0" d="M 352.5,601.5 C 352.5,601.833 352.5,602.167 352.5,602.5C 350.364,603.403 348.364,604.569 346.5,606C 347.337,607.011 347.67,608.178 347.5,609.5C 346.081,608.778 345.581,607.111 346,604.5C 347.993,603.086 350.16,602.086 352.5,601.5 Z"/></g>
<g><path style="opacity:0.843" fill="#d9d9d9" d="M 352.5,601.5 C 352.842,600.662 353.508,600.328 354.5,600.5C 354.5,601.167 354.833,601.5 355.5,601.5C 353.904,604.555 352.238,606.888 350.5,608.5C 351.167,606.5 351.833,604.5 352.5,602.5C 353.833,602.167 353.833,601.833 352.5,601.5 Z"/></g>
<g><path style="opacity:0.953" fill="#dbdbdb" d="M 232.5,609.5 C 234.965,609.767 237.299,610.434 239.5,611.5C 239.44,612.043 239.107,612.376 238.5,612.5C 236.22,611.864 234.22,610.864 232.5,609.5 Z"/></g>
<g><path style="opacity:0.835" fill="#dcdcdc" d="M 419.5,612.5 C 417.324,614.515 414.824,616.182 412,617.5C 411.601,617.272 411.435,616.938 411.5,616.5C 413.849,614.659 416.515,613.326 419.5,612.5 Z"/></g>
<g><path style="opacity:0.878" fill="#dbdbdb" d="M 245.5,619.5 C 242.933,619.279 240.599,618.612 238.5,617.5C 238.56,616.957 238.893,616.624 239.5,616.5C 242.347,617.234 244.347,618.234 245.5,619.5 Z"/></g>
<g><path style="opacity:0.843" fill="#cecece" d="M 341.5,618.5 C 342.492,618.672 343.158,618.338 343.5,617.5C 344.42,616.933 344.754,617.599 344.5,619.5C 343.209,619.737 342.209,619.404 341.5,618.5 Z"/></g>
<g><path style="opacity:0.835" fill="#dfdfdf" d="M 417.5,619.5 C 411.649,623.594 405.315,626.927 398.5,629.5C 403.888,625.624 410.221,622.291 417.5,619.5 Z"/></g>
<g><path style="opacity:0.835" fill="#dcdcdc" d="M 287.5,627.5 C 290.968,628.101 294.301,629.101 297.5,630.5C 297.44,631.043 297.107,631.376 296.5,631.5C 293.231,630.531 290.231,629.198 287.5,627.5 Z"/></g>
<g><path style="opacity:0.835" fill="#dadada" d="M 296.5,636.5 C 296.56,635.957 296.893,635.624 297.5,635.5C 300.347,636.234 302.347,637.234 303.5,638.5C 301.035,638.233 298.701,637.566 296.5,636.5 Z"/></g>
<g><path style="opacity:0.839" fill="#dedede" d="M 305.5,639.5 C 305.56,638.957 305.893,638.624 306.5,638.5C 308.78,639.136 310.78,640.136 312.5,641.5C 310.035,641.233 307.701,640.566 305.5,639.5 Z"/></g>
<g><path style="opacity:0.843" fill="#dbdbdb" d="M 419.5,642.5 C 416.651,644.85 413.485,646.85 410,648.5C 409.601,648.272 409.435,647.938 409.5,647.5C 412.515,645.326 415.849,643.659 419.5,642.5 Z"/></g>
<g><path style="opacity:0.969" fill="#dddddd" d="M 345.5,646.5 C 347.965,646.767 350.299,647.434 352.5,648.5C 352.44,649.043 352.107,649.376 351.5,649.5C 349.22,648.864 347.22,647.864 345.5,646.5 Z"/></g>
<g><path style="opacity:0.842" fill="#e5e5e5" d="M 379.5,647.5 C 380.797,651.094 380.797,654.094 379.5,656.5C 378.632,653.327 378.632,650.327 379.5,647.5 Z"/></g>
<g><path style="opacity:0.839" fill="#e3e3e3" d="M 417.5,649.5 C 413.653,652.593 409.32,654.926 404.5,656.5C 407.878,653.621 412.212,651.288 417.5,649.5 Z"/></g>
</svg>
